<?xml version="1.0" encoding="iso-8859-1"?>
<!-- Uploaded to: SVG Repo, www.svgrepo.com, Generator: SVG Repo Mixer Tools -->
<svg version="1.1" id="Layer_1" xmlns="http://www.w3.org/2000/svg" xmlns:xlink="http://www.w3.org/1999/xlink" 
	 viewBox="0 0 512.001 512.001" xml:space="preserve">
<polygon style="fill:#88ACB5;" points="305.566,395.018 305.566,449.486 256.001,471.273 206.435,449.486 206.435,395.018 "/>
<rect x="206.435" y="449.482" style="fill:#A7CBCF;" width="99.132" height="53.804"/>
<path style="fill:#940044;" d="M492.566,43.274h-32.681v336.471l43.945-21.787V54.538C503.83,48.35,498.765,43.274,492.566,43.274z"
	/>
<path style="fill:#C20035;" d="M459.885,43.274H19.435c-6.198,0-11.264,5.076-11.264,11.264v303.42l32.681,16.202v5.585h430.298
	V54.538C471.149,48.35,466.084,43.274,459.885,43.274z"/>
<polygon style="fill:#B7D9DD;" points="409.448,8.17 409.448,358.498 365.874,358.498 387.661,8.17 "/>
<rect x="102.553" y="8.17" style="fill:#C7E7EB;" width="285.108" height="361.221"/>
<rect x="146.128" y="51.745" style="fill:#FF0F47;" width="219.746" height="57.513"/>
<rect x="146.128" y="283.561" style="fill:#2F5E88;" width="129.307" height="85.842"/>
<path style="fill:#367596;" d="M471.149,357.958l-11.264,66.473h32.681c6.198,0,11.264-5.066,11.264-11.264v-55.209H471.149z"/>
<path style="fill:#5195AF;" d="M8.171,357.958v55.209c0,6.198,5.066,11.264,11.264,11.264h440.451
	c6.198,0,11.264-5.066,11.264-11.264v-55.209H8.171z"/>
<polygon style="fill:#111449;" points="396.321,155.804 409.448,166.697 422.575,155.804 409.448,123.122 "/>
<polygon style="fill:#FFFFFF;" points="409.448,228.082 438.469,195.401 422.575,155.804 396.321,155.804 380.427,195.401 "/>
<polygon style="fill:#FFCD60;" points="380.427,445.073 380.427,195.402 416.681,195.402 427.575,466.86 "/>
<polygon style="fill:#F3A933;" points="416.681,461.434 438.469,445.073 438.469,195.401 416.681,195.401 "/>
<path style="fill:#C20035;" d="M416.681,446.162h21.787v29.391c0,16.003-13.018,29.021-29.021,29.021L416.681,446.162z"/>
<path style="fill:#FF0F47;" d="M380.427,475.553c0,16.003,13.018,29.021,29.021,29.021c3.987,0,7.233-13.018,7.233-29.021v-29.391
	h-36.254V475.553z"/>
<path d="M492.565,35.653h-74.946V8.17c0-4.513-3.657-8.17-8.17-8.17H102.552c-4.512,0-8.17,3.657-8.17,8.17v27.482H19.436
	c-10.717,0-19.435,8.717-19.435,19.434v358.622c0,10.717,8.718,19.435,19.435,19.435h178.445v62.515h-77.06
	c-4.512,0-8.17,3.657-8.17,8.17s3.658,8.17,8.17,8.17h234.191c4.513,0,8.17-3.657,8.17-8.17s-3.657-8.17-8.17-8.17h-40.89v-62.515
	h33.625c4.513,0,8.17-3.657,8.17-8.17c0-4.513-3.657-8.17-8.17-8.17H19.436c-1.678,0-3.095-1.417-3.095-3.095V55.087
	c0-1.678,1.417-3.095,3.095-3.095h74.946v298.336H41.966c-4.512,0-8.17,3.657-8.17,8.17c0,4.513,3.658,8.17,8.17,8.17h305.781
	c4.513,0,8.17-3.657,8.17-8.17c0-4.513-3.657-8.17-8.17-8.17h-64.146v-66.773c0-4.513-3.657-8.17-8.17-8.17H146.126
	c-4.512,0-8.17,3.657-8.17,8.17v66.773h-27.234V43.833c0-0.003,0-0.008,0-0.011c0-0.003,0-0.007,0-0.011V16.34H401.28v74.446
	c0,4.513,3.658,8.17,8.17,8.17c4.513,0,8.17-3.657,8.17-8.17V51.993h74.946c1.678,0,3.095,1.417,3.095,3.095V413.71
	c0,1.678-1.417,3.095-3.095,3.095h-21.417c-4.513,0-8.17,3.657-8.17,8.17c0,4.513,3.657,8.17,8.17,8.17h21.416
	c10.717,0,19.435-8.718,19.435-19.435V55.087C512.001,44.37,503.282,35.653,492.565,35.653z M297.78,495.66H214.22v-62.515h83.559
	V495.66z M154.297,291.726H267.26v58.603H154.297V291.726z"/>
<path d="M446.536,194.521c-0.017-0.118-0.031-0.236-0.053-0.353c-0.034-0.171-0.078-0.338-0.123-0.505
	c-0.023-0.085-0.04-0.171-0.065-0.256c-0.052-0.174-0.114-0.343-0.178-0.512c-0.024-0.063-0.041-0.129-0.066-0.191l-0.04-0.1
	c-0.008-0.017-0.014-0.035-0.021-0.052l-28.958-72.128c-1.244-3.096-4.245-5.125-7.582-5.125c-3.338,0-6.338,2.029-7.582,5.125
	l-28.963,72.134c-0.004,0.011-0.009,0.022-0.013,0.032l-0.046,0.113c-0.027,0.069-0.047,0.141-0.073,0.21
	c-0.06,0.162-0.121,0.325-0.17,0.491c-0.026,0.087-0.045,0.176-0.068,0.265c-0.044,0.166-0.088,0.329-0.121,0.499
	c-0.023,0.118-0.036,0.236-0.054,0.355c-0.022,0.142-0.047,0.28-0.061,0.424c-0.026,0.266-0.04,0.533-0.04,0.801v279.062
	c0,20.507,16.684,37.192,37.192,37.192c20.506,0,37.191-16.684,37.191-37.192V195.747c0-0.268-0.014-0.535-0.04-0.801
	C446.584,194.802,446.558,194.662,446.536,194.521z M388.598,203.917h41.701v233.326h-41.701V203.917z M409.448,145.395
	l16.936,42.182h-33.873L409.448,145.395z M409.448,495.66c-11.497,0-20.851-9.354-20.851-20.851v-21.225h41.702v21.225
	C430.298,486.305,420.945,495.66,409.448,495.66z"/>
<path d="M146.126,117.428h219.749c4.513,0,8.17-3.657,8.17-8.17V51.745c0-4.513-3.657-8.17-8.17-8.17H146.126
	c-4.512,0-8.17,3.657-8.17,8.17v57.513C137.956,113.771,141.614,117.428,146.126,117.428z M154.297,59.915h203.409v41.172H154.297
	V59.915z"/>
<path d="M365.875,133.768H146.126c-4.512,0-8.17,3.657-8.17,8.17c0,4.513,3.658,8.17,8.17,8.17h219.749
	c4.513,0,8.17-3.657,8.17-8.17C374.045,137.425,370.388,133.768,365.875,133.768z"/>
<path d="M275.43,177.343H146.126c-4.512,0-8.17,3.657-8.17,8.17s3.658,8.17,8.17,8.17H275.43c4.513,0,8.17-3.657,8.17-8.17
	S279.943,177.343,275.43,177.343z"/>
<path d="M349.32,177.343h-41.208c-4.513,0-8.17,3.657-8.17,8.17s3.657,8.17,8.17,8.17h41.208c4.513,0,8.17-3.657,8.17-8.17
	S353.833,177.343,349.32,177.343z"/>
<path d="M275.43,210.023H146.126c-4.512,0-8.17,3.657-8.17,8.17s3.658,8.17,8.17,8.17H275.43c4.513,0,8.17-3.657,8.17-8.17
	S279.943,210.023,275.43,210.023z"/>
<path d="M347.747,210.023h-39.635c-4.513,0-8.17,3.657-8.17,8.17s3.657,8.17,8.17,8.17h39.635c4.513,0,8.17-3.657,8.17-8.17
	S352.259,210.023,347.747,210.023z"/>
<path d="M275.43,242.704H146.126c-4.512,0-8.17,3.657-8.17,8.17s3.658,8.17,8.17,8.17H275.43c4.513,0,8.17-3.657,8.17-8.17
	S279.943,242.704,275.43,242.704z"/>
<path d="M347.747,242.704h-39.635c-4.513,0-8.17,3.657-8.17,8.17s3.657,8.17,8.17,8.17h39.635c4.513,0,8.17-3.657,8.17-8.17
	S352.259,242.704,347.747,242.704z"/>
</svg>